<?xml version="1.0" encoding="utf-8"?>
<!-- Generator: Adobe Illustrator 19.1.0, SVG Export Plug-In . SVG Version: 6.00 Build 0)  -->
<svg version="1.1" id="Layer_1" xmlns="http://www.w3.org/2000/svg" xmlns:xlink="http://www.w3.org/1999/xlink" x="0px" y="0px"
	 viewBox="216.1 82.4 368.5 368.5" style="enable-background:new 216.1 82.4 368.5 368.5;" xml:space="preserve">
<style type="text/css">
	.st0{fill:#FFFFFF;}
	.st1{opacity:0.2;}
	.st2{opacity:0.2;enable-background:new    ;}
</style>
<g>
	<g>
		<g>
			<path class="st0" d="M360.8,255.4c5.8,1.5,11.2,2,17,2c31.6,0,63.7-19,68.5-53c3.4-19-4.4-41.8-26.2-41.8
				c-21.4,0-34.5,19.9-37.9,38.9l-0.9,5.8h-68.6c6.8-57.4,59.8-102.6,117.2-102.6c58.4,0,94.8,43.7,85.6,102.1
				c-7.8,46.7-45.2,87.1-91.9,97.7l-10.7,45.7h-66.6L360.8,255.4z"/>
		</g>
		<polygon class="st0" points="332.4,434.3 339.2,390 408.7,390 399,434.3 		"/>
	</g>
	<g>
		<g class="st1">
			<path d="M352.2,247.8c5.8,1.5,11.2,2,17,2c31.6,0,63.7-19,68.5-53c3.4-19-4.4-41.8-26.2-41.8c-21.4,0-34.5,19.9-37.9,38.9
				l-0.9,5.8h-68.6C310.9,142.2,363.9,97,421.3,97c58.4,0,94.8,43.7,85.6,102.1c-7.8,46.7-45.2,87.1-91.9,97.7l-10.7,45.7h-66.6
				L352.2,247.8z"/>
		</g>
		<polygon class="st2" points="323.8,426.7 330.6,382.4 400.1,382.4 390.4,426.7 		"/>
	</g>
</g>
</svg>
