<svg id="Layer_1" enable-background="new 0 0 512 512" height="512" viewBox="0 0 512 512" width="512" xmlns="http://www.w3.org/2000/svg"><g><g><g><g><g id="XMLID_2783_"><g id="XMLID_2784_"><g id="XMLID_2785_"><g id="XMLID_2786_"><g id="XMLID_2787_"><g id="XMLID_2788_"><g id="XMLID_2789_"><g id="XMLID_2790_"><g id="XMLID_2791_"><g id="XMLID_2792_"><g id="XMLID_2793_"><g id="XMLID_2794_"><g id="XMLID_2795_"><g id="XMLID_2818_"><g id="XMLID_3411_"><circle cx="256" cy="256" fill="#ff4d05" r="256"/></g></g></g></g></g></g></g></g></g></g></g></g></g></g></g></g></g></g><path d="m265.656 148.608-69.92-69.99-83.289 83.29 82.675 82.643-30.891 41.564-39.254-39.254-19.571 32.006-19.417 6.982 34.522 34.522-65.35 53.222 127.824 127.824c23.141 6.874 47.643 10.583 73.015 10.583 141.385 0 256-114.615 256-256 0-28.158-4.56-55.249-12.958-80.59l-98.14-98.14z" fill="#c30047"/><g><g><path d="m360.606 309.988h69.887v103.465h-69.887z" fill="#ff9d21" transform="matrix(-.707 .707 -.707 -.707 931.02 337.8)"/><g><g><path d="m365.721 322.34h34.946v103.471h-34.946z" fill="#ff7d47" transform="matrix(.707 -.707 .707 .707 -152.277 380.523)"/></g></g><path d="m111.098 77.27 84.638 1.348 188.962 229.266-42.986 42.986-229.265-188.962z" fill="#daeaec"/><path d="m112.447 161.906 197.083 162.442 27.535 22.691 4.652 3.831 21.491-21.491-252.108-252.108z" fill="#cedfe2"/><path d="m278.161 291.953h150.378v55.137h-150.378z" fill="#ffdd54" transform="matrix(-.707 .707 -.707 -.707 829.142 295.601)"/><path d="m289.17 318.533h75.19v55.139h-75.19z" fill="#ff9d21" transform="matrix(.707 -.707 .707 .707 -149.025 332.43)"/></g><g><path d="m81.507 309.988h69.887v103.465h-69.887z" fill="#5ecbf1" transform="matrix(.707 .707 -.707 .707 289.883 23.603)"/><g><g><path d="m77.07 356.603h103.471v34.946h-103.471z" fill="#0fa7da" transform="matrix(.707 -.707 .707 .707 -226.785 200.644)"/></g></g><path d="m400.901 77.27-84.637 1.348-188.962 229.266 42.986 42.986 229.265-188.962z" fill="#fff"/><path d="m399.553 161.906-197.083 162.442-27.535 22.691-4.652 3.831-21.491-21.491 252.108-252.108z" fill="#f1f4f6"/><path d="m83.461 291.953h150.378v55.137h-150.378z" fill="#00e4ef" transform="matrix(.707 .707 -.707 .707 272.403 -18.597)"/><path d="m157.666 308.508h55.139v75.19h-55.139z" fill="#5ecbf1" transform="matrix(.707 -.707 .707 .707 -190.477 232.352)"/></g></g></g></svg>